<?xml version="1.0" encoding="UTF-8"?>
<svg xmlns="http://www.w3.org/2000/svg" xmlns:xlink="http://www.w3.org/1999/xlink" width="64px" height="64px"
    viewBox="0 0 64 64" version="1.1" fill-opacity="0.75">

    <g id="surface1" transform="matrix(1, 0, 0, 1, 0, -4)">
        <ellipse style="fill: rgb(17, 181, 239);" cx="32" cy="32" rx="32" ry="32"
            transform="matrix(1, 0.000493, 0, 1, -0.071129, 4.152715)"></ellipse>
        <path style="stroke: none; fill-rule: nonzero; fill-opacity: 1; fill: rgb(15, 3, 13);"
            d="M 20.48 7.68 L 20.48 8.961 L 19.199 8.961 L 19.199 10.238 L 17.922 10.238 L 17.922 11.52 L 16.641 11.52 L 16.641 12.801 L 15.359 12.801 L 15.359 23.039 L 14.078 23.039 L 14.078 24.32 L 12.801 24.32 L 12.801 32 L 14.078 32 L 14.078 33.281 L 15.359 33.281 L 15.359 34.559 L 17.922 34.559 L 17.922 46.078 L 19.199 46.078 L 19.199 48.641 L 20.48 48.641 L 20.48 49.922 L 21.762 49.922 L 21.762 51.199 L 26.879 51.199 L 26.879 55.039 L 16.641 55.039 L 16.641 56.32 L 15.359 56.32 L 15.359 57.602 L 14.078 57.602 L 14.217 62.79 C 14.211 63.221 20.969 67.052 20.48 65.629 L 20.48 61.441 L 21.762 61.441 L 21.855 66.467 C 22.795 69.109 42.644 68.399 42.144 66.188 L 42.238 61.441 L 43.52 61.441 L 43.613 65.908 C 44.024 65.999 50.52 62.758 49.829 62.604 L 49.922 57.602 L 48.641 57.602 L 48.641 56.32 L 47.359 56.32 L 47.359 55.039 L 37.121 55.039 L 37.121 51.199 L 38.398 51.199 L 38.398 49.922 L 40.961 49.922 L 40.961 48.641 L 42.238 48.641 L 42.238 47.359 L 43.52 47.359 L 43.52 46.078 L 44.801 46.078 L 44.801 44.801 L 46.078 44.801 L 46.078 34.559 L 48.641 34.559 L 48.641 33.281 L 49.922 33.281 L 49.922 32 L 51.199 32 L 51.199 24.32 L 49.922 24.32 L 49.922 23.039 L 48.641 23.039 L 48.641 12.801 L 47.359 12.801 L 47.359 11.52 L 46.078 11.52 L 46.078 10.238 L 44.801 10.238 L 44.801 8.961 L 43.52 8.961 L 43.52 7.68 L 20.48 7.68 Z M 20.48 7.68">
        </path>
        <path style=" stroke:none;fill-rule:nonzero;fill:rgb(6.666667%,70.980392%,93.72549%);fill-opacity:0.75;"
            d="M 21.761719 10.238281 L 21.761719 11.519531 L 20.480469 11.519531 L 20.480469 12.800781 L 19.199219 12.800781 L 19.199219 14.078125 L 17.921875 14.078125 L 17.921875 17.921875 L 19.199219 17.921875 L 19.199219 16.640625 L 20.480469 16.640625 L 20.480469 14.078125 L 21.761719 14.078125 L 21.761719 12.800781 L 25.601562 12.800781 L 25.601562 11.519531 L 38.398438 11.519531 L 38.398438 12.800781 L 40.960938 12.800781 L 40.960938 14.078125 L 42.238281 14.078125 L 42.238281 15.359375 L 44.800781 15.359375 L 44.800781 16.640625 L 46.078125 16.640625 L 46.078125 14.078125 L 44.800781 14.078125 L 44.800781 12.800781 L 43.519531 12.800781 L 43.519531 11.519531 L 42.238281 11.519531 L 42.238281 10.238281 Z M 21.761719 10.238281 ">
        </path>
        <path style=" stroke:none;fill-rule:nonzero;fill:rgb(97.254902%,89.019608%,77.647059%);fill-opacity:1;"
            d="M 23.039062 19.199219 L 23.039062 20.480469 L 21.761719 20.480469 L 21.761719 21.761719 L 20.480469 21.761719 L 20.480469 47.359375 L 21.761719 47.359375 L 21.761719 48.640625 L 39.679688 48.640625 L 39.679688 47.359375 L 40.960938 47.359375 L 40.960938 46.078125 L 42.238281 46.078125 L 42.238281 44.800781 L 43.519531 44.800781 L 43.519531 21.761719 L 40.960938 21.761719 L 40.960938 20.480469 L 37.121094 20.480469 L 37.121094 19.199219 Z M 23.039062 19.199219 ">
        </path>
        <path style=" stroke:none;fill-rule:nonzero;fill:rgb(5.882353%,1.176471%,5.098039%);fill-opacity:1;"
            d="M 21.761719 24.320312 L 21.761719 25.601562 L 23.039062 25.601562 L 23.039062 26.878906 L 28.160156 26.878906 L 28.160156 25.601562 L 25.601562 25.601562 L 25.601562 24.320312 L 21.761719 24.320312 M 33.28125 24.320312 L 33.28125 25.601562 L 34.558594 25.601562 L 34.558594 26.878906 L 39.679688 26.878906 L 39.679688 25.601562 L 37.121094 25.601562 L 37.121094 24.320312 Z M 33.28125 24.320312 ">
        </path>
        <path style=" stroke:none;fill-rule:nonzero;fill:rgb(38.039216%,17.647059%,0.392157%);fill-opacity:1;"
            d="M 23.039062 28.160156 L 23.039062 30.71875 L 25.601562 30.71875 L 25.601562 29.441406 L 24.320312 29.441406 L 24.320312 28.160156 L 23.039062 28.160156 M 34.558594 28.160156 L 34.558594 30.71875 L 37.121094 30.71875 L 37.121094 29.441406 L 35.839844 29.441406 L 35.839844 28.160156 Z M 34.558594 28.160156 ">
        </path>
        <path style=" stroke:none;fill-rule:nonzero;fill:rgb(5.882353%,1.176471%,5.098039%);fill-opacity:1;"
            d="M 28.160156 32 L 28.160156 35.839844 L 30.71875 35.839844 L 30.71875 34.558594 L 29.441406 34.558594 L 29.441406 32 Z M 28.160156 32 ">
        </path>
        <path style=" stroke:none;fill-rule:nonzero;fill:rgb(57.647059%,23.137255%,34.901961%);fill-opacity:1;"
            d="M 25.601562 40.960938 L 25.601562 42.238281 L 26.878906 42.238281 L 26.878906 43.519531 L 33.28125 43.519531 L 33.28125 42.238281 L 34.558594 42.238281 L 34.558594 40.960938 Z M 25.601562 40.960938 ">
        </path>
        <path style=" stroke:none;fill-rule:nonzero;fill:rgb(97.254902%,89.019608%,77.647059%);fill-opacity:1;"
            d="M 29.441406 51.199219 L 29.441406 56.320312 L 30.71875 56.320312 L 30.71875 57.601562 L 33.28125 57.601562 L 33.28125 56.320312 L 34.558594 56.320312 L 34.558594 51.199219 Z M 29.441406 51.199219 ">
        </path>
        <path style=" stroke:none;fill-rule:nonzero;fill:rgb(6.666667%,70.980392%,93.72549%);fill-opacity:0;"
            d="M 20.480469 61.441406 L 20.480469 64 L 21.761719 64 L 21.761719 61.441406 L 20.480469 61.441406 M 42.238281 61.441406 L 42.238281 64 L 43.519531 64 L 43.519531 61.441406 Z M 42.238281 61.441406 ">
        </path>
    </g>

    <rect x="4.659" y="28.702" width="2.728" height="38.286"
        style="stroke: rgb(200, 0, 0); fill: rgb(255, 0, 0); opacity: 0.75;"
        transform="matrix(0.831933, 0.554876, -0.585149, 0.811742, 36.429169, -2.602139)"></rect>
    <rect x="4.659" y="32.406" width="2.728" height="43.227"
        style="stroke: rgb(200, 0, 0); fill: rgb(255, 0, 0); opacity: 0.75;"
        transform="matrix(0.831933, 0.554876, -0.585149, 0.811742, 49.415589, -4.080445)"></rect>


</svg>