<?xml version="1.0" encoding="UTF-8"?>
<svg xmlns="http://www.w3.org/2000/svg" xmlns:xlink="http://www.w3.org/1999/xlink" width="256px" height="256px" viewBox="0 0 256 256" version="1.1">
<defs>
<filter id="alpha" filterUnits="objectBoundingBox" x="0%" y="0%" width="100%" height="100%">
  <feColorMatrix type="matrix" in="SourceGraphic" values="0 0 0 0 1 0 0 0 0 1 0 0 0 0 1 0 0 0 1 0"/>
</filter>
<mask id="mask0">
  <g filter="url(#alpha)">
<rect x="0" y="0" width="256" height="256" style="fill:rgb(0%,0%,0%);fill-opacity:0.74902;stroke:none;"/>
  </g>
</mask>
<clipPath id="clip1">
  <rect x="0" y="0" width="256" height="256"/>
</clipPath>
<g id="surface5" clip-path="url(#clip1)">
<path style="fill-rule:nonzero;fill:rgb(100%,0%,0%);fill-opacity:0.74902;stroke-width:1;stroke-linecap:butt;stroke-linejoin:miter;stroke:rgb(78.431373%,0%,0%);stroke-opacity:1;stroke-miterlimit:4;" d="M 4.658416 28.70191 L 7.386414 28.701875 L 7.387395 66.988124 L 4.659398 66.988159 Z M 4.658416 28.70191 " transform="matrix(3.327732,2.219504,-2.340596,3.246968,145.716676,-10.408556)"/>
</g>
<mask id="mask1">
  <g filter="url(#alpha)">
<rect x="0" y="0" width="256" height="256" style="fill:rgb(0%,0%,0%);fill-opacity:0.74902;stroke:none;"/>
  </g>
</mask>
<clipPath id="clip2">
  <rect x="0" y="0" width="256" height="256"/>
</clipPath>
<g id="surface8" clip-path="url(#clip2)">
<path style="fill-rule:nonzero;fill:rgb(100%,0%,0%);fill-opacity:0.74902;stroke-width:1;stroke-linecap:butt;stroke-linejoin:miter;stroke:rgb(78.431373%,0%,0%);stroke-opacity:1;stroke-miterlimit:4;" d="M 4.658628 32.405684 L 7.387196 32.406461 L 7.387254 75.633047 L 4.659257 75.633082 Z M 4.658628 32.405684 " transform="matrix(3.327732,2.219504,-2.340596,3.246968,197.662356,-16.32178)"/>
</g>
</defs>
<g id="surface1">
<path style=" stroke:none;fill-rule:nonzero;fill:rgb(6.666667%,70.980392%,93.72549%);fill-opacity:0.74902;" d="M 255.714844 128.738281 C 255.714844 58.042969 198.40625 0.707031 127.714844 0.675781 C 57.023438 0.640625 -0.285156 57.917969 -0.285156 128.609375 C -0.285156 199.304688 57.023438 256.640625 127.714844 256.675781 C 198.40625 256.707031 255.714844 199.429688 255.714844 128.738281 Z M 255.714844 128.738281 "/>
<path style=" stroke:none;fill-rule:nonzero;fill:rgb(5.882353%,1.176471%,5.098039%);fill-opacity:1;" d="M 81.921875 14.71875 L 81.921875 19.84375 L 76.796875 19.84375 L 76.796875 24.953125 L 71.6875 24.953125 L 71.6875 30.078125 L 66.5625 30.078125 L 66.5625 35.203125 L 61.4375 35.203125 L 61.4375 76.15625 L 56.3125 76.15625 L 56.3125 81.28125 L 51.203125 81.28125 L 51.203125 112 L 56.3125 112 L 56.3125 117.125 L 61.4375 117.125 L 61.4375 122.234375 L 71.6875 122.234375 L 71.6875 168.3125 L 76.796875 168.3125 L 76.796875 178.5625 L 81.921875 178.5625 L 81.921875 183.6875 L 87.046875 183.6875 L 87.046875 188.796875 L 107.515625 188.796875 L 107.515625 204.15625 L 66.5625 204.15625 L 66.5625 209.28125 L 61.4375 209.28125 L 61.4375 214.40625 L 56.3125 214.40625 L 56.867188 235.160156 C 56.84375 236.882812 83.875 252.207031 81.921875 246.515625 L 81.921875 229.765625 L 87.046875 229.765625 L 87.421875 249.867188 C 91.179688 260.4375 170.574219 257.597656 168.574219 248.753906 L 168.953125 229.765625 L 174.078125 229.765625 L 174.453125 247.632812 C 176.097656 247.996094 202.078125 235.03125 199.316406 234.414062 L 199.6875 214.40625 L 194.5625 214.40625 L 194.5625 209.28125 L 189.4375 209.28125 L 189.4375 204.15625 L 148.484375 204.15625 L 148.484375 188.796875 L 153.59375 188.796875 L 153.59375 183.6875 L 163.84375 183.6875 L 163.84375 178.5625 L 168.953125 178.5625 L 168.953125 173.4375 L 174.078125 173.4375 L 174.078125 168.3125 L 179.203125 168.3125 L 179.203125 163.203125 L 184.3125 163.203125 L 184.3125 122.234375 L 194.5625 122.234375 L 194.5625 117.125 L 199.6875 117.125 L 199.6875 112 L 204.796875 112 L 204.796875 81.28125 L 199.6875 81.28125 L 199.6875 76.15625 L 194.5625 76.15625 L 194.5625 35.203125 L 189.4375 35.203125 L 189.4375 30.078125 L 184.3125 30.078125 L 184.3125 24.953125 L 179.203125 24.953125 L 179.203125 19.84375 L 174.078125 19.84375 L 174.078125 14.71875 Z M 81.921875 14.71875 "/>
<path style=" stroke:none;fill-rule:nonzero;fill:rgb(6.666667%,70.980392%,93.72549%);fill-opacity:0.74902;" d="M 87.046875 24.953125 L 87.046875 30.078125 L 81.921875 30.078125 L 81.921875 35.203125 L 76.796875 35.203125 L 76.796875 40.3125 L 71.6875 40.3125 L 71.6875 55.6875 L 76.796875 55.6875 L 76.796875 50.5625 L 81.921875 50.5625 L 81.921875 40.3125 L 87.046875 40.3125 L 87.046875 35.203125 L 102.40625 35.203125 L 102.40625 30.078125 L 153.59375 30.078125 L 153.59375 35.203125 L 163.84375 35.203125 L 163.84375 40.3125 L 168.953125 40.3125 L 168.953125 45.4375 L 179.203125 45.4375 L 179.203125 50.5625 L 184.3125 50.5625 L 184.3125 40.3125 L 179.203125 40.3125 L 179.203125 35.203125 L 174.078125 35.203125 L 174.078125 30.078125 L 168.953125 30.078125 L 168.953125 24.953125 Z M 87.046875 24.953125 "/>
<path style=" stroke:none;fill-rule:nonzero;fill:rgb(97.254902%,89.019608%,77.647059%);fill-opacity:1;" d="M 92.15625 60.796875 L 92.15625 65.921875 L 87.046875 65.921875 L 87.046875 71.046875 L 81.921875 71.046875 L 81.921875 173.4375 L 87.046875 173.4375 L 87.046875 178.5625 L 158.71875 178.5625 L 158.71875 173.4375 L 163.84375 173.4375 L 163.84375 168.3125 L 168.953125 168.3125 L 168.953125 163.203125 L 174.078125 163.203125 L 174.078125 71.046875 L 163.84375 71.046875 L 163.84375 65.921875 L 148.484375 65.921875 L 148.484375 60.796875 Z M 92.15625 60.796875 "/>
<path style=" stroke:none;fill-rule:nonzero;fill:rgb(5.882353%,1.176471%,5.098039%);fill-opacity:1;" d="M 87.046875 81.28125 L 87.046875 86.40625 L 92.15625 86.40625 L 92.15625 91.515625 L 112.640625 91.515625 L 112.640625 86.40625 L 102.40625 86.40625 L 102.40625 81.28125 L 87.046875 81.28125 M 133.125 81.28125 L 133.125 86.40625 L 138.234375 86.40625 L 138.234375 91.515625 L 158.71875 91.515625 L 158.71875 86.40625 L 148.484375 86.40625 L 148.484375 81.28125 Z M 133.125 81.28125 "/>
<path style=" stroke:none;fill-rule:nonzero;fill:rgb(38.039216%,17.647059%,0.392157%);fill-opacity:1;" d="M 92.15625 96.640625 L 92.15625 106.875 L 102.40625 106.875 L 102.40625 101.765625 L 97.28125 101.765625 L 97.28125 96.640625 L 92.15625 96.640625 M 138.234375 96.640625 L 138.234375 106.875 L 148.484375 106.875 L 148.484375 101.765625 L 143.359375 101.765625 L 143.359375 96.640625 Z M 138.234375 96.640625 "/>
<path style=" stroke:none;fill-rule:nonzero;fill:rgb(5.882353%,1.176471%,5.098039%);fill-opacity:1;" d="M 112.640625 112 L 112.640625 127.359375 L 122.875 127.359375 L 122.875 122.234375 L 117.765625 122.234375 L 117.765625 112 Z M 112.640625 112 "/>
<path style=" stroke:none;fill-rule:nonzero;fill:rgb(57.647059%,23.137255%,34.901961%);fill-opacity:1;" d="M 102.40625 147.84375 L 102.40625 152.953125 L 107.515625 152.953125 L 107.515625 158.078125 L 133.125 158.078125 L 133.125 152.953125 L 138.234375 152.953125 L 138.234375 147.84375 Z M 102.40625 147.84375 "/>
<path style=" stroke:none;fill-rule:nonzero;fill:rgb(97.254902%,89.019608%,77.647059%);fill-opacity:1;" d="M 117.765625 188.796875 L 117.765625 209.28125 L 122.875 209.28125 L 122.875 214.40625 L 133.125 214.40625 L 133.125 209.28125 L 138.234375 209.28125 L 138.234375 188.796875 Z M 117.765625 188.796875 "/>
<use xlink:href="#surface5" mask="url(#mask0)"/>
<use xlink:href="#surface8" mask="url(#mask1)"/>
</g>
</svg>
